<svg width="29" height="20" viewBox="0 0 29 20" fill="none" xmlns="http://www.w3.org/2000/svg">
<path d="M28.3291 3.26001C28.1648 2.66805 27.843 2.12832 27.396 1.69485C26.9489 1.26137 26.3923 0.949349 25.7819 0.790012C23.5338 0.200012 14.5 0.200012 14.5 0.200012C14.5 0.200012 5.46626 0.200012 3.21814 0.790012C2.60768 0.949349 2.05108 1.26137 1.60406 1.69485C1.15704 2.12832 0.835266 2.66805 0.67095 3.26001C0.251176 5.48328 0.0474702 7.73984 0.062513 10C0.0474702 12.2602 0.251176 14.5167 0.67095 16.74C0.835266 17.332 1.15704 17.8717 1.60406 18.3052C2.05108 18.7387 2.60768 19.0507 3.21814 19.21C5.46626 19.8 14.5 19.8 14.5 19.8C14.5 19.8 23.5338 19.8 25.7819 19.21C26.3923 19.0507 26.9489 18.7387 27.396 18.3052C27.843 17.8717 28.1648 17.332 28.3291 16.74C28.7488 14.5167 28.9526 12.2602 28.9375 10C28.9526 7.73984 28.7488 5.48328 28.3291 3.26001ZM11.6125 14.2V5.80001L19.1097 10L11.6125 14.2Z" fill="#54B22C"/>
</svg>
