<svg width="14" height="16" viewBox="0 0 14 16" fill="none" xmlns="http://www.w3.org/2000/svg">
<path fill-rule="evenodd" clip-rule="evenodd" d="M1.17935 6.7934C1.19016 3.61296 3.77717 1.04346 6.95761 1.05423C10.1381 1.06507 12.7075 3.65209 12.6968 6.83253V6.89774C12.6576 8.96514 11.5033 10.876 10.088 12.3695C9.27869 13.21 8.37486 13.954 7.39457 14.5869C7.13245 14.8136 6.74365 14.8136 6.48153 14.5869C5.02015 13.6357 3.73755 12.4348 2.6924 11.039C1.76086 9.82196 1.23198 8.34472 1.17935 6.81296V6.7934Z" stroke="white" stroke-linecap="round" stroke-linejoin="round"/>
<path d="M6.93806 8.7499C7.95739 8.7499 8.78371 7.92357 8.78371 6.90425C8.78371 5.88492 7.95739 5.05859 6.93806 5.05859C5.91873 5.05859 5.09241 5.88492 5.09241 6.90425C5.09241 7.92357 5.91873 8.7499 6.93806 8.7499Z" stroke="white" stroke-linecap="round" stroke-linejoin="round"/>
</svg>
