<svg width="16" height="16" viewBox="0 0 16 16" fill="none" xmlns="http://www.w3.org/2000/svg">
<path fill-rule="evenodd" clip-rule="evenodd" d="M2.59572 4.29193C2.59572 3.35518 3.35547 2.59543 4.29147 2.59543H5.06322C5.51022 2.59543 5.93997 2.41843 6.25797 2.10268L6.79722 1.56268C7.45797 0.898932 8.53197 0.895931 9.19572 1.55668L9.20247 1.56268L9.74247 2.10268C10.0597 2.41843 10.4895 2.59543 10.9372 2.59543H11.7082C12.645 2.59543 13.4047 3.35518 13.4047 4.29193V5.06218C13.4047 5.51068 13.5817 5.93968 13.8975 6.25768L14.4375 6.79768C15.1012 7.45843 15.105 8.53168 14.4442 9.19618L14.4375 9.20293L13.8975 9.74293C13.5817 10.0594 13.4047 10.4899 13.4047 10.9369V11.7087C13.4047 12.6454 12.645 13.4044 11.7082 13.4044H10.9372C10.4895 13.4044 10.0597 13.5822 9.74247 13.8979L9.20247 14.4372C8.54247 15.1017 7.46847 15.1047 6.80397 14.4439C6.80172 14.4417 6.79947 14.4394 6.79722 14.4372L6.25797 13.8979C5.93997 13.5822 5.51022 13.4044 5.06322 13.4044H4.29147C3.35547 13.4044 2.59572 12.6454 2.59572 11.7087V10.9369C2.59572 10.4899 2.41797 10.0594 2.10222 9.74293L1.56297 9.20293C0.898473 8.54218 0.895473 7.46818 1.55622 6.80443L1.56297 6.79768L2.10222 6.25768C2.41797 5.93968 2.59572 5.51068 2.59572 5.06218V4.29193Z" stroke="white" stroke-linecap="round" stroke-linejoin="round"/>
<path d="M6.07251 9.92727L9.92751 6.07227" stroke="white" stroke-linecap="round" stroke-linejoin="round"/>
<path d="M9.92505 10.4918C9.77505 10.4918 9.63255 10.4318 9.52755 10.3268C9.47505 10.2743 9.43755 10.2068 9.40755 10.1393C9.37755 10.0718 9.36255 10.005 9.36255 9.92927C9.36255 9.85427 9.37755 9.77927 9.40755 9.71177C9.43755 9.64427 9.47505 9.58427 9.52755 9.53177C9.73755 9.32177 10.1125 9.32177 10.3225 9.53177C10.375 9.58427 10.42 9.64427 10.45 9.71177C10.4725 9.77927 10.4875 9.85427 10.4875 9.92927C10.4875 10.005 10.4725 10.0718 10.45 10.1393C10.42 10.2068 10.375 10.2743 10.3225 10.3268C10.2175 10.4318 10.075 10.4918 9.92505 10.4918Z" fill="white"/>
<path d="M6.06995 6.63711C5.99495 6.63711 5.92745 6.62136 5.85995 6.59136C5.79245 6.56136 5.72495 6.52461 5.67245 6.47211C5.61995 6.41211 5.58245 6.35211 5.55245 6.28461C5.52245 6.21636 5.50745 6.14961 5.50745 6.07461C5.50745 5.99886 5.52245 5.92461 5.55245 5.85711C5.58245 5.78961 5.61995 5.72211 5.67245 5.67711C5.88995 5.46636 6.25745 5.46636 6.46745 5.67711C6.57245 5.78136 6.63245 5.92461 6.63245 6.07461C6.63245 6.14961 6.62495 6.21636 6.59495 6.28461C6.56495 6.35211 6.51995 6.41211 6.46745 6.47211C6.41495 6.52461 6.35495 6.56136 6.28745 6.59136C6.21995 6.62136 6.14495 6.63711 6.06995 6.63711Z" fill="white"/>
</svg>
